<mxfile host="app.diagrams.net" agent="Mozilla/5.0 (Windows NT 10.0; Win64; x64) AppleWebKit/537.36 (KHTML, like Gecko) Chrome/131.0.0.0 Safari/537.36" modified="2025-01-16T00:14:49.746Z" version="24.0.5" etag="SdklvAXgLGh5jGvS41Y_" type="google" pages="3">
  <diagram name="ORIGINAL" id="8EEFJANrsbNIImIXeVBk">
    <mxGraphModel grid="0" page="0" gridSize="10" guides="1" tooltips="1" connect="1" arrows="1" fold="1" pageScale="1" pageWidth="827" pageHeight="1169" math="0" shadow="0">
      <root>
        <mxCell id="0" />
        <mxCell id="1" parent="0" />
        <mxCell id="TB6t0XGJ3PHTVSyvjtTu-13" style="edgeStyle=orthogonalEdgeStyle;rounded=0;orthogonalLoop=1;jettySize=auto;html=1;exitX=1;exitY=0.5;exitDx=0;exitDy=0;entryX=1;entryY=0.5;entryDx=0;entryDy=0;startArrow=none;startFill=0;endArrow=none;endFill=0;" edge="1" parent="1" source="TB6t0XGJ3PHTVSyvjtTu-1" target="TB6t0XGJ3PHTVSyvjtTu-9">
          <mxGeometry relative="1" as="geometry" />
        </mxCell>
        <mxCell id="TB6t0XGJ3PHTVSyvjtTu-1" value="&lt;b&gt;Jucatori&lt;/b&gt;" style="whiteSpace=wrap;html=1;align=center;fillColor=#1ba1e2;fontColor=#ffffff;strokeColor=#006EAF;" vertex="1" parent="1">
          <mxGeometry x="-100" y="120" width="100" height="40" as="geometry" />
        </mxCell>
        <mxCell id="TB6t0XGJ3PHTVSyvjtTu-14" style="edgeStyle=orthogonalEdgeStyle;rounded=0;orthogonalLoop=1;jettySize=auto;html=1;exitX=0;exitY=0.5;exitDx=0;exitDy=0;entryX=0;entryY=0.5;entryDx=0;entryDy=0;endArrow=none;endFill=0;" edge="1" parent="1" source="TB6t0XGJ3PHTVSyvjtTu-2" target="TB6t0XGJ3PHTVSyvjtTu-9">
          <mxGeometry relative="1" as="geometry" />
        </mxCell>
        <mxCell id="TB6t0XGJ3PHTVSyvjtTu-2" value="&lt;b&gt;Echipe&lt;/b&gt;" style="whiteSpace=wrap;html=1;align=center;fillColor=#1ba1e2;fontColor=#ffffff;strokeColor=#006EAF;" vertex="1" parent="1">
          <mxGeometry x="570" y="120" width="100" height="40" as="geometry" />
        </mxCell>
        <mxCell id="TB6t0XGJ3PHTVSyvjtTu-18" style="edgeStyle=orthogonalEdgeStyle;rounded=0;orthogonalLoop=1;jettySize=auto;html=1;entryX=0.5;entryY=1;entryDx=0;entryDy=0;endArrow=none;endFill=0;exitX=1;exitY=0.5;exitDx=0;exitDy=0;" edge="1" parent="1" source="SylYQvpCu4UV53YVRD2H-1" target="TB6t0XGJ3PHTVSyvjtTu-1">
          <mxGeometry relative="1" as="geometry">
            <mxPoint x="20" y="370" as="sourcePoint" />
          </mxGeometry>
        </mxCell>
        <mxCell id="skJN-7cCBLnFKgNx0pvD-7" style="rounded=0;orthogonalLoop=1;jettySize=auto;html=1;exitX=0.25;exitY=1;exitDx=0;exitDy=0;entryX=0.5;entryY=0;entryDx=0;entryDy=0;endArrow=none;endFill=0;" edge="1" parent="1" source="TB6t0XGJ3PHTVSyvjtTu-4" target="skJN-7cCBLnFKgNx0pvD-6">
          <mxGeometry relative="1" as="geometry" />
        </mxCell>
        <mxCell id="TB6t0XGJ3PHTVSyvjtTu-4" value="&lt;b&gt;Meciuri&lt;/b&gt;" style="whiteSpace=wrap;html=1;align=center;fillColor=#1ba1e2;fontColor=#ffffff;strokeColor=#006EAF;" vertex="1" parent="1">
          <mxGeometry x="1241" y="120" width="100" height="40" as="geometry" />
        </mxCell>
        <mxCell id="TB6t0XGJ3PHTVSyvjtTu-5" value="&lt;b&gt;Ligi&lt;/b&gt;" style="whiteSpace=wrap;html=1;align=center;fillColor=#1ba1e2;fontColor=#ffffff;strokeColor=#006EAF;" vertex="1" parent="1">
          <mxGeometry x="570" y="-70" width="100" height="40" as="geometry" />
        </mxCell>
        <mxCell id="SylYQvpCu4UV53YVRD2H-6" style="edgeStyle=orthogonalEdgeStyle;rounded=0;orthogonalLoop=1;jettySize=auto;html=1;exitX=0;exitY=0.5;exitDx=0;exitDy=0;entryX=1;entryY=0.5;entryDx=0;entryDy=0;endArrow=none;endFill=0;" edge="1" parent="1" source="TB6t0XGJ3PHTVSyvjtTu-8" target="TB6t0XGJ3PHTVSyvjtTu-2">
          <mxGeometry relative="1" as="geometry" />
        </mxCell>
        <mxCell id="SylYQvpCu4UV53YVRD2H-7" style="edgeStyle=orthogonalEdgeStyle;rounded=0;orthogonalLoop=1;jettySize=auto;html=1;exitX=1;exitY=0.5;exitDx=0;exitDy=0;entryX=0;entryY=0.5;entryDx=0;entryDy=0;endArrow=none;endFill=0;" edge="1" parent="1" source="TB6t0XGJ3PHTVSyvjtTu-8" target="TB6t0XGJ3PHTVSyvjtTu-4">
          <mxGeometry relative="1" as="geometry" />
        </mxCell>
        <mxCell id="TB6t0XGJ3PHTVSyvjtTu-8" value="" style="shape=rhombus;perimeter=rhombusPerimeter;whiteSpace=wrap;html=1;align=center;direction=south;rotation=-90;fillColor=#1ba1e2;fontColor=#ffffff;strokeColor=#006EAF;" vertex="1" parent="1">
          <mxGeometry x="960" y="95" width="50" height="90" as="geometry" />
        </mxCell>
        <mxCell id="TB6t0XGJ3PHTVSyvjtTu-9" value="" style="shape=rhombus;perimeter=rhombusPerimeter;whiteSpace=wrap;html=1;align=center;direction=south;rotation=90;fillColor=#1ba1e2;fontColor=#ffffff;strokeColor=#006EAF;" vertex="1" parent="1">
          <mxGeometry x="260" y="95.00000000000001" width="50" height="90" as="geometry" />
        </mxCell>
        <mxCell id="TB6t0XGJ3PHTVSyvjtTu-10" value="&lt;b&gt;EchipeMeciuri&lt;/b&gt;" style="text;html=1;align=center;verticalAlign=middle;resizable=0;points=[];autosize=1;strokeColor=none;fillColor=none;" vertex="1" parent="1">
          <mxGeometry x="935" y="160" width="100" height="30" as="geometry" />
        </mxCell>
        <mxCell id="TB6t0XGJ3PHTVSyvjtTu-20" value="idJucator" style="ellipse;whiteSpace=wrap;html=1;align=center;fontStyle=1;labelBackgroundColor=none;fillColor=#dae8fc;strokeColor=#6c8ebf;" vertex="1" parent="1">
          <mxGeometry x="-230" y="40" width="100" height="40" as="geometry" />
        </mxCell>
        <mxCell id="TB6t0XGJ3PHTVSyvjtTu-21" value="numeJucator" style="ellipse;whiteSpace=wrap;html=1;align=center;fontStyle=1;labelBackgroundColor=none;fillColor=#dae8fc;strokeColor=#6c8ebf;" vertex="1" parent="1">
          <mxGeometry x="-90" y="30" width="100" height="40" as="geometry" />
        </mxCell>
        <mxCell id="TB6t0XGJ3PHTVSyvjtTu-22" value="nationalitatea" style="ellipse;whiteSpace=wrap;html=1;align=center;fontStyle=1;labelBackgroundColor=none;fillColor=#dae8fc;strokeColor=#6c8ebf;" vertex="1" parent="1">
          <mxGeometry x="40" y="40" width="100" height="40" as="geometry" />
        </mxCell>
        <mxCell id="TB6t0XGJ3PHTVSyvjtTu-24" value="goluri" style="ellipse;whiteSpace=wrap;html=1;align=center;fontStyle=1;labelBackgroundColor=none;fillColor=#dae8fc;strokeColor=#6c8ebf;" vertex="1" parent="1">
          <mxGeometry x="695" y="420" width="100" height="40" as="geometry" />
        </mxCell>
        <mxCell id="SylYQvpCu4UV53YVRD2H-8" style="edgeStyle=orthogonalEdgeStyle;rounded=0;orthogonalLoop=1;jettySize=auto;html=1;exitX=0;exitY=0.5;exitDx=0;exitDy=0;entryX=0.5;entryY=1;entryDx=0;entryDy=0;endArrow=none;endFill=0;" edge="1" parent="1" source="SylYQvpCu4UV53YVRD2H-1" target="TB6t0XGJ3PHTVSyvjtTu-4">
          <mxGeometry relative="1" as="geometry" />
        </mxCell>
        <mxCell id="SylYQvpCu4UV53YVRD2H-1" value="" style="shape=rhombus;perimeter=rhombusPerimeter;whiteSpace=wrap;html=1;align=center;direction=south;rotation=90;fillColor=#1ba1e2;fontColor=#ffffff;strokeColor=#006EAF;" vertex="1" parent="1">
          <mxGeometry x="595" y="340" width="50" height="90" as="geometry" />
        </mxCell>
        <mxCell id="SylYQvpCu4UV53YVRD2H-2" value="&lt;b&gt;StatisticiJucator&lt;/b&gt;" style="text;html=1;align=center;verticalAlign=middle;resizable=0;points=[];autosize=1;strokeColor=none;fillColor=none;" vertex="1" parent="1">
          <mxGeometry x="560" y="410" width="120" height="30" as="geometry" />
        </mxCell>
        <mxCell id="SylYQvpCu4UV53YVRD2H-5" value="minuteJucate" style="ellipse;whiteSpace=wrap;html=1;align=center;fontStyle=1;labelBackgroundColor=none;fillColor=#dae8fc;strokeColor=#6c8ebf;" vertex="1" parent="1">
          <mxGeometry x="440" y="420" width="100" height="40" as="geometry" />
        </mxCell>
        <mxCell id="PIKONj50a8tdUKw98lYd-2" value="" style="endArrow=none;html=1;rounded=0;entryX=0.838;entryY=0.313;entryDx=0;entryDy=0;entryPerimeter=0;exitX=1;exitY=0;exitDx=0;exitDy=0;" edge="1" parent="1" source="SylYQvpCu4UV53YVRD2H-5" target="SylYQvpCu4UV53YVRD2H-1">
          <mxGeometry width="50" height="50" relative="1" as="geometry">
            <mxPoint x="533" y="424" as="sourcePoint" />
            <mxPoint x="470" y="330" as="targetPoint" />
          </mxGeometry>
        </mxCell>
        <mxCell id="PIKONj50a8tdUKw98lYd-3" value="" style="endArrow=none;html=1;rounded=0;exitX=0;exitY=0;exitDx=0;exitDy=0;entryX=0;entryY=0;entryDx=0;entryDy=0;" edge="1" parent="1" source="TB6t0XGJ3PHTVSyvjtTu-24" target="SylYQvpCu4UV53YVRD2H-1">
          <mxGeometry width="50" height="50" relative="1" as="geometry">
            <mxPoint x="340" y="340" as="sourcePoint" />
            <mxPoint x="390" y="290" as="targetPoint" />
          </mxGeometry>
        </mxCell>
        <mxCell id="PIKONj50a8tdUKw98lYd-5" value="G" style="text;html=1;align=center;verticalAlign=middle;resizable=0;points=[];autosize=1;strokeColor=none;fillColor=none;fontStyle=1" vertex="1" parent="1">
          <mxGeometry x="532" y="362" width="27" height="26" as="geometry" />
        </mxCell>
        <mxCell id="PIKONj50a8tdUKw98lYd-6" value="H" style="text;html=1;align=center;verticalAlign=middle;resizable=0;points=[];autosize=1;strokeColor=none;fillColor=none;fontStyle=1" vertex="1" parent="1">
          <mxGeometry x="697" y="360" width="27" height="26" as="geometry" />
        </mxCell>
        <mxCell id="PIKONj50a8tdUKw98lYd-11" value="" style="endArrow=none;html=1;rounded=0;exitX=0;exitY=0.5;exitDx=0;exitDy=0;entryX=0.5;entryY=1;entryDx=0;entryDy=0;" edge="1" parent="1" source="TB6t0XGJ3PHTVSyvjtTu-1" target="TB6t0XGJ3PHTVSyvjtTu-20">
          <mxGeometry width="50" height="50" relative="1" as="geometry">
            <mxPoint x="340" y="220" as="sourcePoint" />
            <mxPoint x="390" y="170" as="targetPoint" />
          </mxGeometry>
        </mxCell>
        <mxCell id="PIKONj50a8tdUKw98lYd-12" value="" style="endArrow=none;html=1;rounded=0;exitX=0.5;exitY=0;exitDx=0;exitDy=0;entryX=0.5;entryY=1;entryDx=0;entryDy=0;" edge="1" parent="1" source="TB6t0XGJ3PHTVSyvjtTu-1" target="TB6t0XGJ3PHTVSyvjtTu-21">
          <mxGeometry width="50" height="50" relative="1" as="geometry">
            <mxPoint x="340" y="220" as="sourcePoint" />
            <mxPoint x="390" y="170" as="targetPoint" />
          </mxGeometry>
        </mxCell>
        <mxCell id="PIKONj50a8tdUKw98lYd-13" value="" style="endArrow=none;html=1;rounded=0;entryX=0.75;entryY=0;entryDx=0;entryDy=0;exitX=0;exitY=1;exitDx=0;exitDy=0;" edge="1" parent="1" source="TB6t0XGJ3PHTVSyvjtTu-22" target="TB6t0XGJ3PHTVSyvjtTu-1">
          <mxGeometry width="50" height="50" relative="1" as="geometry">
            <mxPoint x="340" y="220" as="sourcePoint" />
            <mxPoint x="390" y="170" as="targetPoint" />
          </mxGeometry>
        </mxCell>
        <mxCell id="PIKONj50a8tdUKw98lYd-14" value="A" style="text;html=1;align=center;verticalAlign=middle;resizable=0;points=[];autosize=1;strokeColor=none;fillColor=none;fontStyle=1" vertex="1" parent="1">
          <mxGeometry x="187" y="140" width="26" height="26" as="geometry" />
        </mxCell>
        <mxCell id="PIKONj50a8tdUKw98lYd-15" value="&lt;div&gt;B&lt;/div&gt;" style="text;html=1;align=center;verticalAlign=middle;resizable=0;points=[];autosize=1;strokeColor=none;fillColor=none;fontStyle=1" vertex="1" parent="1">
          <mxGeometry x="352" y="140" width="26" height="26" as="geometry" />
        </mxCell>
        <mxCell id="PIKONj50a8tdUKw98lYd-16" value="pozitie" style="ellipse;whiteSpace=wrap;html=1;align=center;fontStyle=1;labelBackgroundColor=none;fillColor=#dae8fc;strokeColor=#6c8ebf;" vertex="1" parent="1">
          <mxGeometry x="-250" y="133" width="100" height="40" as="geometry" />
        </mxCell>
        <mxCell id="PIKONj50a8tdUKw98lYd-17" value="" style="endArrow=none;html=1;rounded=0;exitX=1;exitY=0.5;exitDx=0;exitDy=0;entryX=0;entryY=0.75;entryDx=0;entryDy=0;" edge="1" parent="1" source="PIKONj50a8tdUKw98lYd-16" target="TB6t0XGJ3PHTVSyvjtTu-1">
          <mxGeometry width="50" height="50" relative="1" as="geometry">
            <mxPoint x="330" y="120" as="sourcePoint" />
            <mxPoint x="380" y="70" as="targetPoint" />
          </mxGeometry>
        </mxCell>
        <mxCell id="PIKONj50a8tdUKw98lYd-18" value="E" style="text;html=1;align=center;verticalAlign=middle;resizable=0;points=[];autosize=1;strokeColor=none;fillColor=none;fontStyle=1" vertex="1" parent="1">
          <mxGeometry x="838" y="110" width="26" height="26" as="geometry" />
        </mxCell>
        <mxCell id="PIKONj50a8tdUKw98lYd-19" value="F" style="text;html=1;align=center;verticalAlign=middle;resizable=0;points=[];autosize=1;strokeColor=none;fillColor=none;fontStyle=1" vertex="1" parent="1">
          <mxGeometry x="1103" y="110" width="25" height="26" as="geometry" />
        </mxCell>
        <mxCell id="PIKONj50a8tdUKw98lYd-20" value="&lt;span style=&quot;color: rgba(0, 0, 0, 0); font-family: monospace; font-size: 0px; text-align: start;&quot;&gt;%3CmxGraphModel%3E%3Croot%3E%3CmxCell%20id%3D%220%22%2F%3E%3CmxCell%20id%3D%221%22%20parent%3D%220%22%2F%3E%3CmxCell%20id%3D%222%22%20value%3D%22idStatistica%22%20style%3D%22ellipse%3BwhiteSpace%3Dwrap%3Bhtml%3D1%3Balign%3Dcenter%3BfontStyle%3D4%3B%22%20vertex%3D%221%22%20parent%3D%221%22%3E%3CmxGeometry%20x%3D%22745%22%20y%3D%22390%22%20width%3D%22100%22%20height%3D%2240%22%20as%3D%22geometry%22%2F%3E%3C%2FmxCell%3E%3C%2Froot%3E%3C%2FmxGraphModel%3E&lt;/span&gt;" style="text;html=1;align=center;verticalAlign=middle;resizable=0;points=[];autosize=1;strokeColor=none;fillColor=none;" vertex="1" parent="1">
          <mxGeometry x="1260" y="58" width="20" height="30" as="geometry" />
        </mxCell>
        <mxCell id="PIKONj50a8tdUKw98lYd-21" value="idMeci" style="ellipse;whiteSpace=wrap;html=1;align=center;fontStyle=1;labelBackgroundColor=none;fillColor=#dae8fc;strokeColor=#6c8ebf;" vertex="1" parent="1">
          <mxGeometry x="1241" y="40" width="100" height="40" as="geometry" />
        </mxCell>
        <mxCell id="PIKONj50a8tdUKw98lYd-22" value="" style="endArrow=none;html=1;rounded=0;exitX=0.5;exitY=0;exitDx=0;exitDy=0;entryX=0.5;entryY=1;entryDx=0;entryDy=0;" edge="1" parent="1" source="TB6t0XGJ3PHTVSyvjtTu-4" target="PIKONj50a8tdUKw98lYd-21">
          <mxGeometry width="50" height="50" relative="1" as="geometry">
            <mxPoint x="860" y="190" as="sourcePoint" />
            <mxPoint x="1235" y="54" as="targetPoint" />
          </mxGeometry>
        </mxCell>
        <mxCell id="R8zNrwuerda4gmCyjBnw-5" value="numeEchipa" style="ellipse;whiteSpace=wrap;html=1;align=center;fontStyle=1;labelBackgroundColor=none;fillColor=#dae8fc;strokeColor=#6c8ebf;" vertex="1" parent="1">
          <mxGeometry x="440" y="200" width="100" height="40" as="geometry" />
        </mxCell>
        <mxCell id="R8zNrwuerda4gmCyjBnw-6" value="" style="endArrow=none;html=1;rounded=0;entryX=0.25;entryY=1;entryDx=0;entryDy=0;exitX=0.5;exitY=0;exitDx=0;exitDy=0;" edge="1" parent="1" source="R8zNrwuerda4gmCyjBnw-5" target="TB6t0XGJ3PHTVSyvjtTu-2">
          <mxGeometry width="50" height="50" relative="1" as="geometry">
            <mxPoint x="490" y="340" as="sourcePoint" />
            <mxPoint x="540" y="290" as="targetPoint" />
          </mxGeometry>
        </mxCell>
        <mxCell id="R8zNrwuerda4gmCyjBnw-7" value="stadion" style="ellipse;whiteSpace=wrap;html=1;align=center;fontStyle=1;labelBackgroundColor=none;fillColor=#dae8fc;strokeColor=#6c8ebf;" vertex="1" parent="1">
          <mxGeometry x="570" y="210" width="100" height="40" as="geometry" />
        </mxCell>
        <mxCell id="R8zNrwuerda4gmCyjBnw-8" value="cota" style="ellipse;whiteSpace=wrap;html=1;align=center;fontStyle=1;labelBackgroundColor=none;fillColor=#dae8fc;strokeColor=#6c8ebf;" vertex="1" parent="1">
          <mxGeometry x="-190" y="200" width="100" height="40" as="geometry" />
        </mxCell>
        <mxCell id="R8zNrwuerda4gmCyjBnw-9" value="" style="endArrow=none;html=1;rounded=0;entryX=0.25;entryY=1;entryDx=0;entryDy=0;exitX=0.5;exitY=0;exitDx=0;exitDy=0;" edge="1" parent="1" source="R8zNrwuerda4gmCyjBnw-8" target="TB6t0XGJ3PHTVSyvjtTu-1">
          <mxGeometry width="50" height="50" relative="1" as="geometry">
            <mxPoint x="390" y="150" as="sourcePoint" />
            <mxPoint x="440" y="100" as="targetPoint" />
          </mxGeometry>
        </mxCell>
        <mxCell id="R8zNrwuerda4gmCyjBnw-10" value="" style="endArrow=none;html=1;rounded=0;entryX=0.5;entryY=1;entryDx=0;entryDy=0;exitX=0.5;exitY=0;exitDx=0;exitDy=0;" edge="1" parent="1" source="R8zNrwuerda4gmCyjBnw-7" target="TB6t0XGJ3PHTVSyvjtTu-2">
          <mxGeometry width="50" height="50" relative="1" as="geometry">
            <mxPoint x="710" y="200" as="sourcePoint" />
            <mxPoint x="760" y="150" as="targetPoint" />
          </mxGeometry>
        </mxCell>
        <mxCell id="R8zNrwuerda4gmCyjBnw-12" value="antrenor" style="ellipse;whiteSpace=wrap;html=1;align=center;fontStyle=1;labelBackgroundColor=none;fillColor=#dae8fc;strokeColor=#6c8ebf;" vertex="1" parent="1">
          <mxGeometry x="700" y="200" width="100" height="40" as="geometry" />
        </mxCell>
        <mxCell id="R8zNrwuerda4gmCyjBnw-13" value="" style="endArrow=none;html=1;rounded=0;entryX=0.75;entryY=1;entryDx=0;entryDy=0;exitX=0.5;exitY=0;exitDx=0;exitDy=0;" edge="1" parent="1" source="R8zNrwuerda4gmCyjBnw-12" target="TB6t0XGJ3PHTVSyvjtTu-2">
          <mxGeometry width="50" height="50" relative="1" as="geometry">
            <mxPoint x="710" y="200" as="sourcePoint" />
            <mxPoint x="760" y="150" as="targetPoint" />
          </mxGeometry>
        </mxCell>
        <mxCell id="R8zNrwuerda4gmCyjBnw-16" value="arbitru" style="ellipse;whiteSpace=wrap;html=1;align=center;fontStyle=1;labelBackgroundColor=none;fillColor=#dae8fc;strokeColor=#6c8ebf;" vertex="1" parent="1">
          <mxGeometry x="1330" y="183" width="100" height="40" as="geometry" />
        </mxCell>
        <mxCell id="R8zNrwuerda4gmCyjBnw-17" value="" style="endArrow=none;html=1;rounded=0;entryX=0.5;entryY=0;entryDx=0;entryDy=0;exitX=0.75;exitY=1;exitDx=0;exitDy=0;" edge="1" parent="1" source="TB6t0XGJ3PHTVSyvjtTu-4" target="R8zNrwuerda4gmCyjBnw-16">
          <mxGeometry width="50" height="50" relative="1" as="geometry">
            <mxPoint x="950" y="240" as="sourcePoint" />
            <mxPoint x="1000" y="190" as="targetPoint" />
          </mxGeometry>
        </mxCell>
        <mxCell id="R8zNrwuerda4gmCyjBnw-18" value="idLiga" style="ellipse;whiteSpace=wrap;html=1;align=center;fontStyle=1;labelBackgroundColor=none;fillColor=#dae8fc;strokeColor=#6c8ebf;" vertex="1" parent="1">
          <mxGeometry x="745" y="-70" width="100" height="40" as="geometry" />
        </mxCell>
        <mxCell id="R8zNrwuerda4gmCyjBnw-19" value="" style="endArrow=none;html=1;rounded=0;exitX=1;exitY=0.5;exitDx=0;exitDy=0;entryX=0;entryY=0.5;entryDx=0;entryDy=0;" edge="1" parent="1" source="TB6t0XGJ3PHTVSyvjtTu-5" target="R8zNrwuerda4gmCyjBnw-18">
          <mxGeometry width="50" height="50" relative="1" as="geometry">
            <mxPoint x="740" y="50" as="sourcePoint" />
            <mxPoint x="790" as="targetPoint" />
          </mxGeometry>
        </mxCell>
        <mxCell id="R8zNrwuerda4gmCyjBnw-20" value="idEchipa" style="ellipse;whiteSpace=wrap;html=1;align=center;fontStyle=1;labelBackgroundColor=none;fillColor=#dae8fc;strokeColor=#6c8ebf;" vertex="1" parent="1">
          <mxGeometry x="680" y="55" width="100" height="40" as="geometry" />
        </mxCell>
        <mxCell id="R8zNrwuerda4gmCyjBnw-22" value="" style="endArrow=none;html=1;rounded=0;exitX=0.75;exitY=0;exitDx=0;exitDy=0;entryX=0;entryY=1;entryDx=0;entryDy=0;" edge="1" parent="1" source="TB6t0XGJ3PHTVSyvjtTu-2" target="R8zNrwuerda4gmCyjBnw-20">
          <mxGeometry width="50" height="50" relative="1" as="geometry">
            <mxPoint x="740" y="-10" as="sourcePoint" />
            <mxPoint x="790" y="-60" as="targetPoint" />
          </mxGeometry>
        </mxCell>
        <mxCell id="R8zNrwuerda4gmCyjBnw-23" value="" style="endArrow=none;html=1;rounded=0;entryX=0.5;entryY=1;entryDx=0;entryDy=0;exitX=0.75;exitY=0;exitDx=0;exitDy=0;" edge="1" parent="1" source="TB6t0XGJ3PHTVSyvjtTu-5" target="R8zNrwuerda4gmCyjBnw-24">
          <mxGeometry width="50" height="50" relative="1" as="geometry">
            <mxPoint x="820" y="180" as="sourcePoint" />
            <mxPoint x="870" y="130" as="targetPoint" />
          </mxGeometry>
        </mxCell>
        <mxCell id="R8zNrwuerda4gmCyjBnw-24" value="premiu" style="ellipse;whiteSpace=wrap;html=1;align=center;fontStyle=1;labelBackgroundColor=none;fillColor=#dae8fc;strokeColor=#6c8ebf;" vertex="1" parent="1">
          <mxGeometry x="625" y="-150" width="100" height="40" as="geometry" />
        </mxCell>
        <mxCell id="R8zNrwuerda4gmCyjBnw-25" value="" style="endArrow=none;html=1;rounded=0;entryX=0;entryY=1;entryDx=0;entryDy=0;exitX=0.75;exitY=0;exitDx=0;exitDy=0;" edge="1" parent="1" source="TB6t0XGJ3PHTVSyvjtTu-4" target="R8zNrwuerda4gmCyjBnw-26">
          <mxGeometry width="50" height="50" relative="1" as="geometry">
            <mxPoint x="820" y="120" as="sourcePoint" />
            <mxPoint x="870" y="70" as="targetPoint" />
          </mxGeometry>
        </mxCell>
        <mxCell id="R8zNrwuerda4gmCyjBnw-26" value="data_meci" style="ellipse;whiteSpace=wrap;html=1;align=center;fontStyle=1;labelBackgroundColor=none;fillColor=#dae8fc;strokeColor=#6c8ebf;" vertex="1" parent="1">
          <mxGeometry x="1380" y="50" width="100" height="40" as="geometry" />
        </mxCell>
        <mxCell id="R8zNrwuerda4gmCyjBnw-27" value="taraEchipa" style="ellipse;whiteSpace=wrap;html=1;align=center;fontStyle=1;labelBackgroundColor=none;fillColor=#dae8fc;strokeColor=#6c8ebf;" vertex="1" parent="1">
          <mxGeometry x="470" y="58" width="100" height="40" as="geometry" />
        </mxCell>
        <mxCell id="R8zNrwuerda4gmCyjBnw-31" value="" style="endArrow=none;html=1;rounded=0;entryX=1;entryY=1;entryDx=0;entryDy=0;exitX=0.25;exitY=0;exitDx=0;exitDy=0;" edge="1" parent="1" source="TB6t0XGJ3PHTVSyvjtTu-2" target="R8zNrwuerda4gmCyjBnw-27">
          <mxGeometry width="50" height="50" relative="1" as="geometry">
            <mxPoint x="590" y="140" as="sourcePoint" />
            <mxPoint x="640" y="90" as="targetPoint" />
          </mxGeometry>
        </mxCell>
        <mxCell id="R8zNrwuerda4gmCyjBnw-36" value="organizator" style="ellipse;whiteSpace=wrap;html=1;align=center;fontStyle=1;labelBackgroundColor=none;fillColor=#dae8fc;strokeColor=#6c8ebf;" vertex="1" parent="1">
          <mxGeometry x="490" y="-150" width="100" height="40" as="geometry" />
        </mxCell>
        <mxCell id="R8zNrwuerda4gmCyjBnw-38" value="" style="endArrow=none;html=1;rounded=0;entryX=0.5;entryY=1;entryDx=0;entryDy=0;exitX=0.25;exitY=0;exitDx=0;exitDy=0;" edge="1" parent="1" source="TB6t0XGJ3PHTVSyvjtTu-5" target="R8zNrwuerda4gmCyjBnw-36">
          <mxGeometry width="50" height="50" relative="1" as="geometry">
            <mxPoint x="730" y="140" as="sourcePoint" />
            <mxPoint x="780" y="90" as="targetPoint" />
          </mxGeometry>
        </mxCell>
        <mxCell id="R8zNrwuerda4gmCyjBnw-39" value="numeLiga" style="ellipse;whiteSpace=wrap;html=1;align=center;fontStyle=1;labelBackgroundColor=none;fillColor=#dae8fc;strokeColor=#6c8ebf;" vertex="1" parent="1">
          <mxGeometry x="430" y="-70" width="100" height="40" as="geometry" />
        </mxCell>
        <mxCell id="R8zNrwuerda4gmCyjBnw-40" value="" style="endArrow=none;html=1;rounded=0;entryX=0;entryY=0.5;entryDx=0;entryDy=0;exitX=1;exitY=0.5;exitDx=0;exitDy=0;" edge="1" parent="1" source="R8zNrwuerda4gmCyjBnw-39" target="TB6t0XGJ3PHTVSyvjtTu-5">
          <mxGeometry width="50" height="50" relative="1" as="geometry">
            <mxPoint x="730" y="140" as="sourcePoint" />
            <mxPoint x="780" y="90" as="targetPoint" />
          </mxGeometry>
        </mxCell>
        <mxCell id="R8zNrwuerda4gmCyjBnw-43" value="cartonase" style="ellipse;whiteSpace=wrap;html=1;align=center;fontStyle=1;labelBackgroundColor=none;fillColor=#dae8fc;strokeColor=#6c8ebf;" vertex="1" parent="1">
          <mxGeometry x="423" y="327" width="100" height="40" as="geometry" />
        </mxCell>
        <mxCell id="R8zNrwuerda4gmCyjBnw-44" value="" style="endArrow=none;html=1;rounded=0;entryX=1;entryY=1;entryDx=0;entryDy=0;exitX=1;exitY=1;exitDx=0;exitDy=0;" edge="1" parent="1" source="R8zNrwuerda4gmCyjBnw-43" target="SylYQvpCu4UV53YVRD2H-1">
          <mxGeometry width="50" height="50" relative="1" as="geometry">
            <mxPoint x="440" y="350" as="sourcePoint" />
            <mxPoint x="490" y="300" as="targetPoint" />
          </mxGeometry>
        </mxCell>
        <mxCell id="R8zNrwuerda4gmCyjBnw-45" style="edgeStyle=orthogonalEdgeStyle;rounded=0;orthogonalLoop=1;jettySize=auto;html=1;exitX=0.5;exitY=1;exitDx=0;exitDy=0;" edge="1" parent="1" source="R8zNrwuerda4gmCyjBnw-43" target="R8zNrwuerda4gmCyjBnw-43">
          <mxGeometry relative="1" as="geometry" />
        </mxCell>
        <mxCell id="R8zNrwuerda4gmCyjBnw-46" value="asisturi" style="ellipse;whiteSpace=wrap;html=1;align=center;fontStyle=1;labelBackgroundColor=none;fillColor=#dae8fc;strokeColor=#6c8ebf;" vertex="1" parent="1">
          <mxGeometry x="714" y="324" width="100" height="40" as="geometry" />
        </mxCell>
        <mxCell id="R8zNrwuerda4gmCyjBnw-49" value="" style="endArrow=none;html=1;rounded=0;exitX=0;exitY=1;exitDx=0;exitDy=0;entryX=0;entryY=1;entryDx=0;entryDy=0;" edge="1" parent="1" source="SylYQvpCu4UV53YVRD2H-1" target="R8zNrwuerda4gmCyjBnw-46">
          <mxGeometry width="50" height="50" relative="1" as="geometry">
            <mxPoint x="960" y="220" as="sourcePoint" />
            <mxPoint x="1010" y="170" as="targetPoint" />
          </mxGeometry>
        </mxCell>
        <mxCell id="R8zNrwuerda4gmCyjBnw-51" value="nota" style="ellipse;whiteSpace=wrap;html=1;align=center;fontStyle=1;labelBackgroundColor=none;fillColor=#dae8fc;strokeColor=#6c8ebf;" vertex="1" parent="1">
          <mxGeometry x="618" y="295" width="100" height="40" as="geometry" />
        </mxCell>
        <mxCell id="R8zNrwuerda4gmCyjBnw-52" value="" style="endArrow=none;html=1;rounded=0;entryX=0.5;entryY=1;entryDx=0;entryDy=0;exitX=0.5;exitY=1;exitDx=0;exitDy=0;" edge="1" parent="1" source="SylYQvpCu4UV53YVRD2H-1" target="R8zNrwuerda4gmCyjBnw-51">
          <mxGeometry width="50" height="50" relative="1" as="geometry">
            <mxPoint x="610" y="330" as="sourcePoint" />
            <mxPoint x="660" y="280" as="targetPoint" />
          </mxGeometry>
        </mxCell>
        <mxCell id="skJN-7cCBLnFKgNx0pvD-18" style="rounded=0;orthogonalLoop=1;jettySize=auto;html=1;exitX=0.5;exitY=0;exitDx=0;exitDy=0;entryX=0;entryY=1;entryDx=0;entryDy=0;endArrow=none;endFill=0;" edge="1" parent="1" source="skJN-7cCBLnFKgNx0pvD-3" target="TB6t0XGJ3PHTVSyvjtTu-8">
          <mxGeometry relative="1" as="geometry" />
        </mxCell>
        <mxCell id="skJN-7cCBLnFKgNx0pvD-3" value="goluriMarcate" style="ellipse;whiteSpace=wrap;html=1;align=center;fontStyle=1;labelBackgroundColor=none;fillColor=#dae8fc;strokeColor=#6c8ebf;" vertex="1" parent="1">
          <mxGeometry x="845" y="200" width="100" height="40" as="geometry" />
        </mxCell>
        <mxCell id="skJN-7cCBLnFKgNx0pvD-17" style="rounded=0;orthogonalLoop=1;jettySize=auto;html=1;exitX=0.5;exitY=0;exitDx=0;exitDy=0;entryX=1;entryY=1;entryDx=0;entryDy=0;endArrow=none;endFill=0;" edge="1" parent="1" source="skJN-7cCBLnFKgNx0pvD-4" target="TB6t0XGJ3PHTVSyvjtTu-8">
          <mxGeometry relative="1" as="geometry" />
        </mxCell>
        <mxCell id="skJN-7cCBLnFKgNx0pvD-4" value="Gazda" style="ellipse;whiteSpace=wrap;html=1;align=center;fontStyle=1;labelBackgroundColor=none;fillColor=#dae8fc;strokeColor=#6c8ebf;" vertex="1" parent="1">
          <mxGeometry x="1030" y="200" width="100" height="40" as="geometry" />
        </mxCell>
        <mxCell id="skJN-7cCBLnFKgNx0pvD-6" value="minutejucate" style="ellipse;whiteSpace=wrap;html=1;align=center;fontStyle=1;labelBackgroundColor=none;fillColor=#dae8fc;strokeColor=#6c8ebf;" vertex="1" parent="1">
          <mxGeometry x="1170" y="183" width="100" height="40" as="geometry" />
        </mxCell>
        <mxCell id="2KssgygCovRIUcp65754-2" style="rounded=0;orthogonalLoop=1;jettySize=auto;html=1;exitX=1;exitY=0.5;exitDx=0;exitDy=0;entryX=0.5;entryY=0;entryDx=0;entryDy=0;endArrow=none;endFill=0;" edge="1" parent="1" source="2KssgygCovRIUcp65754-1" target="TB6t0XGJ3PHTVSyvjtTu-2">
          <mxGeometry relative="1" as="geometry" />
        </mxCell>
        <mxCell id="2KssgygCovRIUcp65754-3" style="rounded=0;orthogonalLoop=1;jettySize=auto;html=1;exitX=0;exitY=0.5;exitDx=0;exitDy=0;entryX=0.5;entryY=1;entryDx=0;entryDy=0;endArrow=none;endFill=0;" edge="1" parent="1" source="2KssgygCovRIUcp65754-1" target="TB6t0XGJ3PHTVSyvjtTu-5">
          <mxGeometry relative="1" as="geometry" />
        </mxCell>
        <mxCell id="2KssgygCovRIUcp65754-1" value="" style="shape=rhombus;perimeter=rhombusPerimeter;whiteSpace=wrap;html=1;align=center;direction=west;rotation=-90;fillColor=#1ba1e2;fontColor=#ffffff;strokeColor=#006EAF;" vertex="1" parent="1">
          <mxGeometry x="575" y="20" width="90" height="50" as="geometry" />
        </mxCell>
        <mxCell id="2KssgygCovRIUcp65754-5" value="C" style="text;html=1;align=center;verticalAlign=middle;resizable=0;points=[];autosize=1;strokeColor=none;fillColor=none;fontStyle=1" vertex="1" parent="1">
          <mxGeometry x="628" y="-18" width="27" height="26" as="geometry" />
        </mxCell>
        <mxCell id="2KssgygCovRIUcp65754-6" value="D" style="text;html=1;align=center;verticalAlign=middle;resizable=0;points=[];autosize=1;strokeColor=none;fillColor=none;fontStyle=1" vertex="1" parent="1">
          <mxGeometry x="627" y="80" width="27" height="26" as="geometry" />
        </mxCell>
        <mxCell id="9thG6sg6wY5hgz9bnnDz-1" value="idStat" style="ellipse;whiteSpace=wrap;html=1;align=center;fontStyle=1;labelBackgroundColor=none;fillColor=#dae8fc;strokeColor=#6c8ebf;" vertex="1" parent="1">
          <mxGeometry x="510" y="297" width="100" height="40" as="geometry" />
        </mxCell>
        <mxCell id="9thG6sg6wY5hgz9bnnDz-2" value="" style="endArrow=none;html=1;rounded=0;exitX=0.5;exitY=1;exitDx=0;exitDy=0;entryX=0.5;entryY=1;entryDx=0;entryDy=0;" edge="1" parent="1" source="9thG6sg6wY5hgz9bnnDz-1" target="SylYQvpCu4UV53YVRD2H-1">
          <mxGeometry width="50" height="50" relative="1" as="geometry">
            <mxPoint x="518" y="523" as="sourcePoint" />
            <mxPoint x="616" y="461" as="targetPoint" />
          </mxGeometry>
        </mxCell>
        <mxCell id="9thG6sg6wY5hgz9bnnDz-3" value="N:1" style="text;html=1;align=center;verticalAlign=middle;resizable=0;points=[];autosize=1;strokeColor=none;fillColor=none;fontStyle=1" vertex="1" parent="1">
          <mxGeometry x="267" y="84" width="37" height="26" as="geometry" />
        </mxCell>
        <mxCell id="9thG6sg6wY5hgz9bnnDz-4" value="1&lt;br&gt;:&lt;br&gt;N" style="text;html=1;align=center;verticalAlign=middle;resizable=0;points=[];autosize=1;strokeColor=none;fillColor=none;fontStyle=1" vertex="1" parent="1">
          <mxGeometry x="648" y="17.5" width="27" height="55" as="geometry" />
        </mxCell>
        <mxCell id="9thG6sg6wY5hgz9bnnDz-5" value="N:M" style="text;html=1;align=center;verticalAlign=middle;resizable=0;points=[];autosize=1;strokeColor=none;fillColor=none;fontStyle=1" vertex="1" parent="1">
          <mxGeometry x="965.5" y="84" width="40" height="26" as="geometry" />
        </mxCell>
        <mxCell id="9thG6sg6wY5hgz9bnnDz-6" value="N:M" style="text;html=1;align=center;verticalAlign=middle;resizable=0;points=[];autosize=1;strokeColor=none;fillColor=none;fontStyle=1" vertex="1" parent="1">
          <mxGeometry x="600.5" y="331" width="40" height="26" as="geometry" />
        </mxCell>
      </root>
    </mxGraphModel>
  </diagram>
  <diagram id="psVop_0PfmSX_lUCzx7U" name="UPDATE">
    <mxGraphModel grid="1" page="1" gridSize="10" guides="1" tooltips="1" connect="1" arrows="1" fold="1" pageScale="1" pageWidth="827" pageHeight="1169" math="0" shadow="0">
      <root>
        <mxCell id="0" />
        <mxCell id="1" parent="0" />
        <mxCell id="_GNtE6-uMuzIwWdpDYQF-1" style="edgeStyle=orthogonalEdgeStyle;rounded=0;orthogonalLoop=1;jettySize=auto;html=1;exitX=1;exitY=0.5;exitDx=0;exitDy=0;startArrow=none;startFill=0;endArrow=none;endFill=0;" edge="1" parent="1" source="_GNtE6-uMuzIwWdpDYQF-2">
          <mxGeometry relative="1" as="geometry">
            <mxPoint x="330" y="140" as="targetPoint" />
          </mxGeometry>
        </mxCell>
        <mxCell id="_GNtE6-uMuzIwWdpDYQF-2" value="&lt;b&gt;Jucatori&lt;/b&gt;" style="whiteSpace=wrap;html=1;align=center;" vertex="1" parent="1">
          <mxGeometry x="-100" y="120" width="100" height="40" as="geometry" />
        </mxCell>
        <mxCell id="_GNtE6-uMuzIwWdpDYQF-3" style="edgeStyle=orthogonalEdgeStyle;rounded=0;orthogonalLoop=1;jettySize=auto;html=1;exitX=0;exitY=0.5;exitDx=0;exitDy=0;entryX=0;entryY=0.5;entryDx=0;entryDy=0;endArrow=none;endFill=0;" edge="1" parent="1" source="_GNtE6-uMuzIwWdpDYQF-4">
          <mxGeometry relative="1" as="geometry">
            <mxPoint x="330" y="139.99999999999977" as="targetPoint" />
          </mxGeometry>
        </mxCell>
        <mxCell id="_GNtE6-uMuzIwWdpDYQF-4" value="&lt;b&gt;Echipe&lt;/b&gt;" style="whiteSpace=wrap;html=1;align=center;" vertex="1" parent="1">
          <mxGeometry x="570" y="120" width="100" height="40" as="geometry" />
        </mxCell>
        <mxCell id="_GNtE6-uMuzIwWdpDYQF-5" style="edgeStyle=orthogonalEdgeStyle;rounded=0;orthogonalLoop=1;jettySize=auto;html=1;entryX=0.5;entryY=1;entryDx=0;entryDy=0;endArrow=none;endFill=0;" edge="1" parent="1" target="_GNtE6-uMuzIwWdpDYQF-2">
          <mxGeometry relative="1" as="geometry">
            <mxPoint x="680" y="380" as="sourcePoint" />
            <Array as="points">
              <mxPoint x="-50" y="387" />
            </Array>
          </mxGeometry>
        </mxCell>
        <mxCell id="_GNtE6-uMuzIwWdpDYQF-6" value="&lt;b&gt;Meciuri&lt;/b&gt;" style="whiteSpace=wrap;html=1;align=center;" vertex="1" parent="1">
          <mxGeometry x="1241" y="120" width="100" height="40" as="geometry" />
        </mxCell>
        <mxCell id="_GNtE6-uMuzIwWdpDYQF-7" value="&lt;b&gt;Ligi&lt;/b&gt;" style="whiteSpace=wrap;html=1;align=center;" vertex="1" parent="1">
          <mxGeometry x="570" y="-130" width="100" height="40" as="geometry" />
        </mxCell>
        <mxCell id="_GNtE6-uMuzIwWdpDYQF-8" style="edgeStyle=orthogonalEdgeStyle;rounded=0;orthogonalLoop=1;jettySize=auto;html=1;exitX=0;exitY=0.5;exitDx=0;exitDy=0;entryX=1;entryY=0.5;entryDx=0;entryDy=0;endArrow=none;endFill=0;" edge="1" parent="1" source="_GNtE6-uMuzIwWdpDYQF-10" target="_GNtE6-uMuzIwWdpDYQF-4">
          <mxGeometry relative="1" as="geometry" />
        </mxCell>
        <mxCell id="_GNtE6-uMuzIwWdpDYQF-9" style="edgeStyle=orthogonalEdgeStyle;rounded=0;orthogonalLoop=1;jettySize=auto;html=1;exitX=1;exitY=0.5;exitDx=0;exitDy=0;entryX=0;entryY=0.5;entryDx=0;entryDy=0;endArrow=none;endFill=0;" edge="1" parent="1" source="_GNtE6-uMuzIwWdpDYQF-10" target="_GNtE6-uMuzIwWdpDYQF-6">
          <mxGeometry relative="1" as="geometry" />
        </mxCell>
        <mxCell id="_GNtE6-uMuzIwWdpDYQF-10" value="" style="shape=rhombus;perimeter=rhombusPerimeter;whiteSpace=wrap;html=1;align=center;direction=south;rotation=-90;" vertex="1" parent="1">
          <mxGeometry x="960" y="95" width="50" height="90" as="geometry" />
        </mxCell>
        <mxCell id="_GNtE6-uMuzIwWdpDYQF-12" value="&lt;b&gt;Echipe_Meci&lt;/b&gt;" style="text;html=1;align=center;verticalAlign=middle;resizable=0;points=[];autosize=1;strokeColor=none;fillColor=none;" vertex="1" parent="1">
          <mxGeometry x="935" y="160" width="100" height="30" as="geometry" />
        </mxCell>
        <mxCell id="_GNtE6-uMuzIwWdpDYQF-14" value="Nume" style="ellipse;whiteSpace=wrap;html=1;align=center;fontStyle=4;" vertex="1" parent="1">
          <mxGeometry x="-230" y="40" width="100" height="40" as="geometry" />
        </mxCell>
        <mxCell id="_GNtE6-uMuzIwWdpDYQF-15" value="idJucator" style="ellipse;whiteSpace=wrap;html=1;align=center;fontStyle=4;" vertex="1" parent="1">
          <mxGeometry x="-90" y="30" width="100" height="40" as="geometry" />
        </mxCell>
        <mxCell id="_GNtE6-uMuzIwWdpDYQF-16" value="Echipa" style="ellipse;whiteSpace=wrap;html=1;align=center;fontStyle=4;" vertex="1" parent="1">
          <mxGeometry x="40" y="40" width="100" height="40" as="geometry" />
        </mxCell>
        <mxCell id="_GNtE6-uMuzIwWdpDYQF-18" value="goluri" style="ellipse;whiteSpace=wrap;html=1;align=center;fontStyle=4;" vertex="1" parent="1">
          <mxGeometry x="-10" y="240" width="100" height="40" as="geometry" />
        </mxCell>
        <mxCell id="_GNtE6-uMuzIwWdpDYQF-19" style="edgeStyle=orthogonalEdgeStyle;rounded=0;orthogonalLoop=1;jettySize=auto;html=1;entryX=0.5;entryY=1;entryDx=0;entryDy=0;endArrow=none;endFill=0;" edge="1" parent="1">
          <mxGeometry relative="1" as="geometry">
            <mxPoint x="679.49" y="388" as="sourcePoint" />
            <mxPoint x="1279.48" y="168" as="targetPoint" />
          </mxGeometry>
        </mxCell>
        <mxCell id="_GNtE6-uMuzIwWdpDYQF-86" style="rounded=0;orthogonalLoop=1;jettySize=auto;html=1;exitX=0;exitY=0;exitDx=0;exitDy=0;entryX=1;entryY=1;entryDx=0;entryDy=0;endArrow=none;endFill=0;" edge="1" parent="1" source="_GNtE6-uMuzIwWdpDYQF-22" target="_GNtE6-uMuzIwWdpDYQF-2">
          <mxGeometry relative="1" as="geometry" />
        </mxCell>
        <mxCell id="_GNtE6-uMuzIwWdpDYQF-22" value="minute" style="ellipse;whiteSpace=wrap;html=1;align=center;fontStyle=4;" vertex="1" parent="1">
          <mxGeometry x="50" y="183" width="100" height="40" as="geometry" />
        </mxCell>
        <mxCell id="_GNtE6-uMuzIwWdpDYQF-32" value="" style="endArrow=none;html=1;rounded=0;exitX=0;exitY=0.5;exitDx=0;exitDy=0;entryX=0.5;entryY=1;entryDx=0;entryDy=0;" edge="1" parent="1" source="_GNtE6-uMuzIwWdpDYQF-2" target="_GNtE6-uMuzIwWdpDYQF-14">
          <mxGeometry width="50" height="50" relative="1" as="geometry">
            <mxPoint x="340" y="220" as="sourcePoint" />
            <mxPoint x="390" y="170" as="targetPoint" />
          </mxGeometry>
        </mxCell>
        <mxCell id="_GNtE6-uMuzIwWdpDYQF-33" value="" style="endArrow=none;html=1;rounded=0;exitX=0.5;exitY=0;exitDx=0;exitDy=0;entryX=0.5;entryY=1;entryDx=0;entryDy=0;" edge="1" parent="1" source="_GNtE6-uMuzIwWdpDYQF-2" target="_GNtE6-uMuzIwWdpDYQF-15">
          <mxGeometry width="50" height="50" relative="1" as="geometry">
            <mxPoint x="340" y="220" as="sourcePoint" />
            <mxPoint x="390" y="170" as="targetPoint" />
          </mxGeometry>
        </mxCell>
        <mxCell id="_GNtE6-uMuzIwWdpDYQF-34" value="" style="endArrow=none;html=1;rounded=0;entryX=0.75;entryY=0;entryDx=0;entryDy=0;exitX=0;exitY=1;exitDx=0;exitDy=0;" edge="1" parent="1" source="_GNtE6-uMuzIwWdpDYQF-16" target="_GNtE6-uMuzIwWdpDYQF-2">
          <mxGeometry width="50" height="50" relative="1" as="geometry">
            <mxPoint x="340" y="220" as="sourcePoint" />
            <mxPoint x="390" y="170" as="targetPoint" />
          </mxGeometry>
        </mxCell>
        <mxCell id="_GNtE6-uMuzIwWdpDYQF-37" value="Pozitie" style="ellipse;whiteSpace=wrap;html=1;align=center;fontStyle=4;" vertex="1" parent="1">
          <mxGeometry x="-250" y="133" width="100" height="40" as="geometry" />
        </mxCell>
        <mxCell id="_GNtE6-uMuzIwWdpDYQF-38" value="" style="endArrow=none;html=1;rounded=0;exitX=1;exitY=0.5;exitDx=0;exitDy=0;entryX=0;entryY=0.75;entryDx=0;entryDy=0;" edge="1" parent="1" source="_GNtE6-uMuzIwWdpDYQF-37" target="_GNtE6-uMuzIwWdpDYQF-2">
          <mxGeometry width="50" height="50" relative="1" as="geometry">
            <mxPoint x="330" y="120" as="sourcePoint" />
            <mxPoint x="380" y="70" as="targetPoint" />
          </mxGeometry>
        </mxCell>
        <mxCell id="_GNtE6-uMuzIwWdpDYQF-39" value="K (2)" style="text;html=1;align=center;verticalAlign=middle;resizable=0;points=[];autosize=1;strokeColor=none;fillColor=none;" vertex="1" parent="1">
          <mxGeometry x="825" y="108" width="50" height="30" as="geometry" />
        </mxCell>
        <mxCell id="_GNtE6-uMuzIwWdpDYQF-40" value="L" style="text;html=1;align=center;verticalAlign=middle;resizable=0;points=[];autosize=1;strokeColor=none;fillColor=none;" vertex="1" parent="1">
          <mxGeometry x="1100" y="108" width="30" height="30" as="geometry" />
        </mxCell>
        <mxCell id="_GNtE6-uMuzIwWdpDYQF-41" value="&lt;span style=&quot;color: rgba(0, 0, 0, 0); font-family: monospace; font-size: 0px; text-align: start;&quot;&gt;%3CmxGraphModel%3E%3Croot%3E%3CmxCell%20id%3D%220%22%2F%3E%3CmxCell%20id%3D%221%22%20parent%3D%220%22%2F%3E%3CmxCell%20id%3D%222%22%20value%3D%22idStatistica%22%20style%3D%22ellipse%3BwhiteSpace%3Dwrap%3Bhtml%3D1%3Balign%3Dcenter%3BfontStyle%3D4%3B%22%20vertex%3D%221%22%20parent%3D%221%22%3E%3CmxGeometry%20x%3D%22745%22%20y%3D%22390%22%20width%3D%22100%22%20height%3D%2240%22%20as%3D%22geometry%22%2F%3E%3C%2FmxCell%3E%3C%2Froot%3E%3C%2FmxGraphModel%3E&lt;/span&gt;" style="text;html=1;align=center;verticalAlign=middle;resizable=0;points=[];autosize=1;strokeColor=none;fillColor=none;" vertex="1" parent="1">
          <mxGeometry x="1260" y="58" width="20" height="30" as="geometry" />
        </mxCell>
        <mxCell id="_GNtE6-uMuzIwWdpDYQF-42" value="idMeci" style="ellipse;whiteSpace=wrap;html=1;align=center;fontStyle=4;" vertex="1" parent="1">
          <mxGeometry x="1241" y="40" width="100" height="40" as="geometry" />
        </mxCell>
        <mxCell id="_GNtE6-uMuzIwWdpDYQF-43" value="" style="endArrow=none;html=1;rounded=0;exitX=0.5;exitY=0;exitDx=0;exitDy=0;entryX=0.5;entryY=1;entryDx=0;entryDy=0;" edge="1" parent="1" source="_GNtE6-uMuzIwWdpDYQF-6" target="_GNtE6-uMuzIwWdpDYQF-42">
          <mxGeometry width="50" height="50" relative="1" as="geometry">
            <mxPoint x="860" y="190" as="sourcePoint" />
            <mxPoint x="1235" y="54" as="targetPoint" />
          </mxGeometry>
        </mxCell>
        <mxCell id="_GNtE6-uMuzIwWdpDYQF-44" value="" style="shape=rhombus;perimeter=rhombusPerimeter;whiteSpace=wrap;html=1;align=center;direction=south;rotation=-180;" vertex="1" parent="1">
          <mxGeometry x="595" y="-40" width="50" height="90" as="geometry" />
        </mxCell>
        <mxCell id="_GNtE6-uMuzIwWdpDYQF-45" value="" style="endArrow=none;html=1;rounded=0;entryX=0;entryY=0.5;entryDx=0;entryDy=0;exitX=0.5;exitY=0;exitDx=0;exitDy=0;" edge="1" parent="1" source="_GNtE6-uMuzIwWdpDYQF-4" target="_GNtE6-uMuzIwWdpDYQF-44">
          <mxGeometry width="50" height="50" relative="1" as="geometry">
            <mxPoint x="780" y="230" as="sourcePoint" />
            <mxPoint x="830" y="180" as="targetPoint" />
          </mxGeometry>
        </mxCell>
        <mxCell id="_GNtE6-uMuzIwWdpDYQF-46" value="" style="endArrow=none;html=1;rounded=0;entryX=0.5;entryY=1;entryDx=0;entryDy=0;exitX=1;exitY=0.5;exitDx=0;exitDy=0;" edge="1" parent="1" source="_GNtE6-uMuzIwWdpDYQF-44" target="_GNtE6-uMuzIwWdpDYQF-7">
          <mxGeometry width="50" height="50" relative="1" as="geometry">
            <mxPoint x="780" y="230" as="sourcePoint" />
            <mxPoint x="830" y="180" as="targetPoint" />
          </mxGeometry>
        </mxCell>
        <mxCell id="_GNtE6-uMuzIwWdpDYQF-47" value="&lt;b&gt;Liga_Echipe&lt;/b&gt;" style="text;html=1;align=center;verticalAlign=middle;resizable=0;points=[];autosize=1;strokeColor=none;fillColor=none;rotation=-90;" vertex="1" parent="1">
          <mxGeometry x="615" y="-10" width="90" height="30" as="geometry" />
        </mxCell>
        <mxCell id="_GNtE6-uMuzIwWdpDYQF-48" value="numeEchipa" style="ellipse;whiteSpace=wrap;html=1;align=center;fontStyle=4;" vertex="1" parent="1">
          <mxGeometry x="470" y="200" width="100" height="40" as="geometry" />
        </mxCell>
        <mxCell id="_GNtE6-uMuzIwWdpDYQF-49" value="" style="endArrow=none;html=1;rounded=0;entryX=0.25;entryY=1;entryDx=0;entryDy=0;exitX=0.5;exitY=0;exitDx=0;exitDy=0;" edge="1" parent="1" source="_GNtE6-uMuzIwWdpDYQF-48" target="_GNtE6-uMuzIwWdpDYQF-4">
          <mxGeometry width="50" height="50" relative="1" as="geometry">
            <mxPoint x="490" y="340" as="sourcePoint" />
            <mxPoint x="540" y="290" as="targetPoint" />
          </mxGeometry>
        </mxCell>
        <mxCell id="_GNtE6-uMuzIwWdpDYQF-50" value="Stadion" style="ellipse;whiteSpace=wrap;html=1;align=center;fontStyle=4;" vertex="1" parent="1">
          <mxGeometry x="570" y="210" width="100" height="40" as="geometry" />
        </mxCell>
        <mxCell id="_GNtE6-uMuzIwWdpDYQF-51" value="Cota" style="ellipse;whiteSpace=wrap;html=1;align=center;fontStyle=4;" vertex="1" parent="1">
          <mxGeometry x="-190" y="200" width="100" height="40" as="geometry" />
        </mxCell>
        <mxCell id="_GNtE6-uMuzIwWdpDYQF-52" value="" style="endArrow=none;html=1;rounded=0;entryX=0.25;entryY=1;entryDx=0;entryDy=0;exitX=0.5;exitY=0;exitDx=0;exitDy=0;" edge="1" parent="1" source="_GNtE6-uMuzIwWdpDYQF-51" target="_GNtE6-uMuzIwWdpDYQF-2">
          <mxGeometry width="50" height="50" relative="1" as="geometry">
            <mxPoint x="390" y="150" as="sourcePoint" />
            <mxPoint x="440" y="100" as="targetPoint" />
          </mxGeometry>
        </mxCell>
        <mxCell id="_GNtE6-uMuzIwWdpDYQF-53" value="" style="endArrow=none;html=1;rounded=0;entryX=0.5;entryY=1;entryDx=0;entryDy=0;exitX=0.5;exitY=0;exitDx=0;exitDy=0;" edge="1" parent="1" source="_GNtE6-uMuzIwWdpDYQF-50" target="_GNtE6-uMuzIwWdpDYQF-4">
          <mxGeometry width="50" height="50" relative="1" as="geometry">
            <mxPoint x="710" y="200" as="sourcePoint" />
            <mxPoint x="760" y="150" as="targetPoint" />
          </mxGeometry>
        </mxCell>
        <mxCell id="_GNtE6-uMuzIwWdpDYQF-54" value="Antrenor" style="ellipse;whiteSpace=wrap;html=1;align=center;fontStyle=4;" vertex="1" parent="1">
          <mxGeometry x="680" y="200" width="100" height="40" as="geometry" />
        </mxCell>
        <mxCell id="_GNtE6-uMuzIwWdpDYQF-55" value="" style="endArrow=none;html=1;rounded=0;entryX=0.75;entryY=1;entryDx=0;entryDy=0;exitX=0.5;exitY=0;exitDx=0;exitDy=0;" edge="1" parent="1" source="_GNtE6-uMuzIwWdpDYQF-54" target="_GNtE6-uMuzIwWdpDYQF-4">
          <mxGeometry width="50" height="50" relative="1" as="geometry">
            <mxPoint x="710" y="200" as="sourcePoint" />
            <mxPoint x="760" y="150" as="targetPoint" />
          </mxGeometry>
        </mxCell>
        <mxCell id="_GNtE6-uMuzIwWdpDYQF-56" value="ArbitruDesemnat" style="ellipse;whiteSpace=wrap;html=1;align=center;fontStyle=4;" vertex="1" parent="1">
          <mxGeometry x="1390" y="120" width="100" height="40" as="geometry" />
        </mxCell>
        <mxCell id="_GNtE6-uMuzIwWdpDYQF-57" value="" style="endArrow=none;html=1;rounded=0;entryX=0;entryY=0.5;entryDx=0;entryDy=0;exitX=1;exitY=0.5;exitDx=0;exitDy=0;" edge="1" parent="1" source="_GNtE6-uMuzIwWdpDYQF-6" target="_GNtE6-uMuzIwWdpDYQF-56">
          <mxGeometry width="50" height="50" relative="1" as="geometry">
            <mxPoint x="950" y="240" as="sourcePoint" />
            <mxPoint x="1000" y="190" as="targetPoint" />
          </mxGeometry>
        </mxCell>
        <mxCell id="_GNtE6-uMuzIwWdpDYQF-58" value="idLiga" style="ellipse;whiteSpace=wrap;html=1;align=center;fontStyle=4;" vertex="1" parent="1">
          <mxGeometry x="745" y="-130" width="100" height="40" as="geometry" />
        </mxCell>
        <mxCell id="_GNtE6-uMuzIwWdpDYQF-59" value="" style="endArrow=none;html=1;rounded=0;exitX=1;exitY=0.5;exitDx=0;exitDy=0;entryX=0;entryY=0.5;entryDx=0;entryDy=0;" edge="1" parent="1" source="_GNtE6-uMuzIwWdpDYQF-7" target="_GNtE6-uMuzIwWdpDYQF-58">
          <mxGeometry width="50" height="50" relative="1" as="geometry">
            <mxPoint x="740" y="-10" as="sourcePoint" />
            <mxPoint x="790" y="-60" as="targetPoint" />
          </mxGeometry>
        </mxCell>
        <mxCell id="_GNtE6-uMuzIwWdpDYQF-60" value="idEchipe" style="ellipse;whiteSpace=wrap;html=1;align=center;fontStyle=4;" vertex="1" parent="1">
          <mxGeometry x="680" y="55" width="100" height="40" as="geometry" />
        </mxCell>
        <mxCell id="_GNtE6-uMuzIwWdpDYQF-61" value="" style="endArrow=none;html=1;rounded=0;exitX=0.75;exitY=0;exitDx=0;exitDy=0;entryX=0;entryY=1;entryDx=0;entryDy=0;" edge="1" parent="1" source="_GNtE6-uMuzIwWdpDYQF-4" target="_GNtE6-uMuzIwWdpDYQF-60">
          <mxGeometry width="50" height="50" relative="1" as="geometry">
            <mxPoint x="740" y="-10" as="sourcePoint" />
            <mxPoint x="790" y="-60" as="targetPoint" />
          </mxGeometry>
        </mxCell>
        <mxCell id="_GNtE6-uMuzIwWdpDYQF-62" value="" style="endArrow=none;html=1;rounded=0;entryX=0.5;entryY=1;entryDx=0;entryDy=0;exitX=0.75;exitY=0;exitDx=0;exitDy=0;" edge="1" parent="1" source="_GNtE6-uMuzIwWdpDYQF-7" target="_GNtE6-uMuzIwWdpDYQF-63">
          <mxGeometry width="50" height="50" relative="1" as="geometry">
            <mxPoint x="820" y="120" as="sourcePoint" />
            <mxPoint x="870" y="70" as="targetPoint" />
          </mxGeometry>
        </mxCell>
        <mxCell id="_GNtE6-uMuzIwWdpDYQF-63" value="premiu" style="ellipse;whiteSpace=wrap;html=1;align=center;fontStyle=4;" vertex="1" parent="1">
          <mxGeometry x="625" y="-210" width="100" height="40" as="geometry" />
        </mxCell>
        <mxCell id="_GNtE6-uMuzIwWdpDYQF-64" value="" style="endArrow=none;html=1;rounded=0;entryX=0;entryY=1;entryDx=0;entryDy=0;exitX=0.75;exitY=0;exitDx=0;exitDy=0;" edge="1" parent="1" source="_GNtE6-uMuzIwWdpDYQF-6" target="_GNtE6-uMuzIwWdpDYQF-65">
          <mxGeometry width="50" height="50" relative="1" as="geometry">
            <mxPoint x="820" y="120" as="sourcePoint" />
            <mxPoint x="870" y="70" as="targetPoint" />
          </mxGeometry>
        </mxCell>
        <mxCell id="_GNtE6-uMuzIwWdpDYQF-65" value="data" style="ellipse;whiteSpace=wrap;html=1;align=center;fontStyle=4;" vertex="1" parent="1">
          <mxGeometry x="1380" y="50" width="100" height="40" as="geometry" />
        </mxCell>
        <mxCell id="_GNtE6-uMuzIwWdpDYQF-66" value="taraEchipa" style="ellipse;whiteSpace=wrap;html=1;align=center;fontStyle=4;" vertex="1" parent="1">
          <mxGeometry x="470" y="58" width="100" height="40" as="geometry" />
        </mxCell>
        <mxCell id="_GNtE6-uMuzIwWdpDYQF-67" value="pozitieClasament" style="ellipse;whiteSpace=wrap;html=1;align=center;fontStyle=4;" vertex="1" parent="1">
          <mxGeometry x="460" y="-15" width="100" height="40" as="geometry" />
        </mxCell>
        <mxCell id="_GNtE6-uMuzIwWdpDYQF-68" value="" style="endArrow=none;html=1;rounded=0;entryX=0.5;entryY=0;entryDx=0;entryDy=0;exitX=1;exitY=0.5;exitDx=0;exitDy=0;" edge="1" parent="1" source="_GNtE6-uMuzIwWdpDYQF-67" target="_GNtE6-uMuzIwWdpDYQF-44">
          <mxGeometry width="50" height="50" relative="1" as="geometry">
            <mxPoint x="590" y="140" as="sourcePoint" />
            <mxPoint x="640" y="90" as="targetPoint" />
          </mxGeometry>
        </mxCell>
        <mxCell id="_GNtE6-uMuzIwWdpDYQF-69" value="" style="endArrow=none;html=1;rounded=0;entryX=1;entryY=1;entryDx=0;entryDy=0;exitX=0.25;exitY=0;exitDx=0;exitDy=0;" edge="1" parent="1" source="_GNtE6-uMuzIwWdpDYQF-4" target="_GNtE6-uMuzIwWdpDYQF-66">
          <mxGeometry width="50" height="50" relative="1" as="geometry">
            <mxPoint x="590" y="140" as="sourcePoint" />
            <mxPoint x="640" y="90" as="targetPoint" />
          </mxGeometry>
        </mxCell>
        <mxCell id="_GNtE6-uMuzIwWdpDYQF-70" value="D" style="text;html=1;align=center;verticalAlign=middle;resizable=0;points=[];autosize=1;strokeColor=none;fillColor=none;rotation=-90;" vertex="1" parent="1">
          <mxGeometry x="615" y="55" width="30" height="30" as="geometry" />
        </mxCell>
        <mxCell id="_GNtE6-uMuzIwWdpDYQF-71" value="E" style="text;html=1;align=center;verticalAlign=middle;resizable=0;points=[];autosize=1;strokeColor=none;fillColor=none;rotation=-90;" vertex="1" parent="1">
          <mxGeometry x="625" y="-60" width="30" height="30" as="geometry" />
        </mxCell>
        <mxCell id="_GNtE6-uMuzIwWdpDYQF-72" value="organizator" style="ellipse;whiteSpace=wrap;html=1;align=center;fontStyle=4;" vertex="1" parent="1">
          <mxGeometry x="490" y="-210" width="100" height="40" as="geometry" />
        </mxCell>
        <mxCell id="_GNtE6-uMuzIwWdpDYQF-73" value="" style="endArrow=none;html=1;rounded=0;entryX=0.5;entryY=1;entryDx=0;entryDy=0;exitX=0.25;exitY=0;exitDx=0;exitDy=0;" edge="1" parent="1" source="_GNtE6-uMuzIwWdpDYQF-7" target="_GNtE6-uMuzIwWdpDYQF-72">
          <mxGeometry width="50" height="50" relative="1" as="geometry">
            <mxPoint x="730" y="80" as="sourcePoint" />
            <mxPoint x="780" y="30" as="targetPoint" />
          </mxGeometry>
        </mxCell>
        <mxCell id="_GNtE6-uMuzIwWdpDYQF-74" value="numeLiga" style="ellipse;whiteSpace=wrap;html=1;align=center;fontStyle=4;" vertex="1" parent="1">
          <mxGeometry x="430" y="-130" width="100" height="40" as="geometry" />
        </mxCell>
        <mxCell id="_GNtE6-uMuzIwWdpDYQF-75" value="" style="endArrow=none;html=1;rounded=0;entryX=0;entryY=0.5;entryDx=0;entryDy=0;exitX=1;exitY=0.5;exitDx=0;exitDy=0;" edge="1" parent="1" source="_GNtE6-uMuzIwWdpDYQF-74" target="_GNtE6-uMuzIwWdpDYQF-7">
          <mxGeometry width="50" height="50" relative="1" as="geometry">
            <mxPoint x="730" y="80" as="sourcePoint" />
            <mxPoint x="780" y="30" as="targetPoint" />
          </mxGeometry>
        </mxCell>
        <mxCell id="_GNtE6-uMuzIwWdpDYQF-76" value="cartonase" style="ellipse;whiteSpace=wrap;html=1;align=center;fontStyle=4;" vertex="1" parent="1">
          <mxGeometry x="-170" y="-50" width="100" height="40" as="geometry" />
        </mxCell>
        <mxCell id="_GNtE6-uMuzIwWdpDYQF-78" style="edgeStyle=orthogonalEdgeStyle;rounded=0;orthogonalLoop=1;jettySize=auto;html=1;exitX=0.5;exitY=1;exitDx=0;exitDy=0;" edge="1" parent="1" source="_GNtE6-uMuzIwWdpDYQF-76" target="_GNtE6-uMuzIwWdpDYQF-76">
          <mxGeometry relative="1" as="geometry" />
        </mxCell>
        <mxCell id="_GNtE6-uMuzIwWdpDYQF-87" style="rounded=0;orthogonalLoop=1;jettySize=auto;html=1;exitX=0.5;exitY=0;exitDx=0;exitDy=0;entryX=0.5;entryY=1;entryDx=0;entryDy=0;endArrow=none;endFill=0;" edge="1" parent="1" target="_GNtE6-uMuzIwWdpDYQF-2">
          <mxGeometry relative="1" as="geometry">
            <mxPoint x="-120" y="279.9999999999998" as="sourcePoint" />
            <mxPoint x="-40" y="159.99999999999977" as="targetPoint" />
          </mxGeometry>
        </mxCell>
        <mxCell id="_GNtE6-uMuzIwWdpDYQF-79" value="asisturi" style="ellipse;whiteSpace=wrap;html=1;align=center;fontStyle=4;" vertex="1" parent="1">
          <mxGeometry x="-180" y="280" width="100" height="40" as="geometry" />
        </mxCell>
        <mxCell id="_GNtE6-uMuzIwWdpDYQF-83" style="rounded=0;orthogonalLoop=1;jettySize=auto;html=1;exitX=0.5;exitY=1;exitDx=0;exitDy=0;entryX=0.309;entryY=0.016;entryDx=0;entryDy=0;entryPerimeter=0;endArrow=none;endFill=0;" edge="1" parent="1" source="_GNtE6-uMuzIwWdpDYQF-76" target="_GNtE6-uMuzIwWdpDYQF-2">
          <mxGeometry relative="1" as="geometry" />
        </mxCell>
        <mxCell id="_GNtE6-uMuzIwWdpDYQF-84" style="rounded=0;orthogonalLoop=1;jettySize=auto;html=1;exitX=0.5;exitY=0;exitDx=0;exitDy=0;entryX=0.59;entryY=1;entryDx=0;entryDy=0;entryPerimeter=0;endArrow=none;endFill=0;" edge="1" parent="1" source="_GNtE6-uMuzIwWdpDYQF-18" target="_GNtE6-uMuzIwWdpDYQF-2">
          <mxGeometry relative="1" as="geometry" />
        </mxCell>
      </root>
    </mxGraphModel>
  </diagram>
  <diagram id="ZveBrxP_BKbpJz_DD3r_" name="Legenda">
    <mxGraphModel grid="1" page="1" gridSize="10" guides="1" tooltips="1" connect="1" arrows="1" fold="1" pageScale="1" pageWidth="827" pageHeight="1169" math="0" shadow="0">
      <root>
        <mxCell id="0" />
        <mxCell id="1" parent="0" />
        <mxCell id="F9BX4W0lAQ7hXqkfYxac-1" value="&lt;b&gt;Asociere&lt;/b&gt;" style="shape=rhombus;perimeter=rhombusPerimeter;whiteSpace=wrap;html=1;align=center;direction=south;rotation=0;fillColor=#1ba1e2;fontColor=#ffffff;strokeColor=#006EAF;" vertex="1" parent="1">
          <mxGeometry x="260" y="585" width="100" height="60" as="geometry" />
        </mxCell>
        <mxCell id="F9BX4W0lAQ7hXqkfYxac-2" value="Atribut" style="ellipse;whiteSpace=wrap;html=1;align=center;fontStyle=1;labelBackgroundColor=none;fillColor=#dae8fc;strokeColor=#6c8ebf;" vertex="1" parent="1">
          <mxGeometry x="260" y="670" width="100" height="40" as="geometry" />
        </mxCell>
        <mxCell id="F9BX4W0lAQ7hXqkfYxac-3" value="&lt;b&gt;Entitate&lt;/b&gt;" style="whiteSpace=wrap;html=1;align=center;fillColor=#1ba1e2;fontColor=#ffffff;strokeColor=#006EAF;" vertex="1" parent="1">
          <mxGeometry x="260" y="520" width="100" height="40" as="geometry" />
        </mxCell>
        <mxCell id="F9BX4W0lAQ7hXqkfYxac-4" value="&lt;b&gt;&lt;font style=&quot;font-size: 17px;&quot;&gt;Legendă:&lt;/font&gt;&lt;/b&gt;" style="text;html=1;align=center;verticalAlign=middle;whiteSpace=wrap;rounded=0;" vertex="1" parent="1">
          <mxGeometry x="260" y="470" width="100" height="30" as="geometry" />
        </mxCell>
      </root>
    </mxGraphModel>
  </diagram>
</mxfile>
